<?xml version="1.0" encoding="UTF-8" standalone="no"?>
<!DOCTYPE svg PUBLIC "-//W3C//DTD SVG 1.1//EN"
 "http://www.w3.org/Graphics/SVG/1.1/DTD/svg11.dtd">
<!-- Generated by graphviz version 9.0.0 (20230911.1827)
 -->
<!-- Title: src/rental_management_lib/src/rental_management_lib.cpp Pages: 1 -->
<svg width="346pt" height="120pt"
 viewBox="0.00 0.00 345.50 120.00" xmlns="http://www.w3.org/2000/svg" xmlns:xlink="http://www.w3.org/1999/xlink">

<svg id="main" version="1.1" xmlns="http://www.w3.org/2000/svg" xmlns:xlink="http://www.w3.org/1999/xlink" xml:space="preserve" onload="init(evt)">
<style type="text/css"><![CDATA[
.node, .edge {opacity: 0.7;}
.node.selected, .edge.selected {opacity: 1;}
.edge:hover path { stroke: red; }
.edge:hover polygon { stroke: red; fill: red; }
]]></style>
<script type="application/ecmascript" xlink:href="svg.min.js"/>
<svg id="graph" class="graph">
<g id="graph0" class="graph" transform="scale(1 1) rotate(0) translate(4 116)">
<title>src/rental_management_lib/src/rental_management_lib.cpp</title>
<!-- Node1 -->
<g id="Node000001" class="node">
<title>Node1</title>
<g id="a_Node000001"><a xlink:title=" ">
<polygon fill="#999999" stroke="#666666" points="283.38,-112 147.38,-112 147.38,-68 283.38,-68 283.38,-112"/>
<text text-anchor="start" x="155.38" y="-98.5" font-family="Helvetica,sans-Serif" font-size="10.00">src/rental_management</text>
<text text-anchor="start" x="155.38" y="-86.5" font-family="Helvetica,sans-Serif" font-size="10.00">_lib/src/rental_management</text>
<text text-anchor="middle" x="215.38" y="-74.5" font-family="Helvetica,sans-Serif" font-size="10.00">_lib.cpp</text>
</a>
</g>
</g>
<!-- Node2 -->
<g id="Node000002" class="node">
<title>Node2</title>
<g id="a_Node000002"><a xlink:href="rental__management__lib_8h.html" target="_top" xlink:title="Provides functions for rental_management_app.">
<polygon fill="white" stroke="#666666" points="142.75,-32 0,-32 0,0 142.75,0 142.75,-32"/>
<text text-anchor="start" x="8" y="-18.5" font-family="Helvetica,sans-Serif" font-size="10.00">../header/rental_management</text>
<text text-anchor="middle" x="71.38" y="-6.5" font-family="Helvetica,sans-Serif" font-size="10.00">_lib.h</text>
</a>
</g>
</g>
<!-- Node1&#45;&gt;Node2 -->
<g id="edge1_Node000001_Node000002" class="edge">
<title>Node1&#45;&gt;Node2</title>
<g id="a_edge1_Node000001_Node000002"><a xlink:title=" ">
<path fill="none" stroke="#63b8ff" d="M172.56,-67.59C153.53,-58.08 131.23,-46.93 112.42,-37.52"/>
<polygon fill="#63b8ff" stroke="#63b8ff" points="114.23,-34.51 103.72,-33.17 111.1,-40.78 114.23,-34.51"/>
</a>
</g>
</g>
<!-- Node3 -->
<g id="Node000003" class="node">
<title>Node3</title>
<g id="a_Node000003"><a xlink:title=" ">
<polygon fill="#e0e0e0" stroke="#999999" points="206,-26 160.75,-26 160.75,-6 206,-6 206,-26"/>
<text text-anchor="middle" x="183.38" y="-12.5" font-family="Helvetica,sans-Serif" font-size="10.00">stdio.h</text>
</a>
</g>
</g>
<!-- Node1&#45;&gt;Node3 -->
<g id="edge2_Node000001_Node000003" class="edge">
<title>Node1&#45;&gt;Node3</title>
<g id="a_edge2_Node000001_Node000003"><a xlink:title=" ">
<path fill="none" stroke="#63b8ff" d="M205.95,-67.79C201.6,-58 196.46,-46.44 192.19,-36.83"/>
<polygon fill="#63b8ff" stroke="#63b8ff" points="195.39,-35.41 188.13,-27.69 188.99,-38.25 195.39,-35.41"/>
</a>
</g>
</g>
<!-- Node4 -->
<g id="Node000004" class="node">
<title>Node4</title>
<g id="a_Node000004"><a xlink:title=" ">
<polygon fill="#e0e0e0" stroke="#999999" points="271.12,-26 223.62,-26 223.62,-6 271.12,-6 271.12,-26"/>
<text text-anchor="middle" x="247.38" y="-12.5" font-family="Helvetica,sans-Serif" font-size="10.00">stdlib.h</text>
</a>
</g>
</g>
<!-- Node1&#45;&gt;Node4 -->
<g id="edge3_Node000001_Node000004" class="edge">
<title>Node1&#45;&gt;Node4</title>
<g id="a_edge3_Node000001_Node000004"><a xlink:title=" ">
<path fill="none" stroke="#63b8ff" d="M224.8,-67.79C229.15,-58 234.29,-46.44 238.56,-36.83"/>
<polygon fill="#63b8ff" stroke="#63b8ff" points="241.76,-38.25 242.62,-27.69 235.36,-35.41 241.76,-38.25"/>
</a>
</g>
</g>
<!-- Node5 -->
<g id="Node000005" class="node">
<title>Node5</title>
<g id="a_Node000005"><a xlink:title=" ">
<polygon fill="#e0e0e0" stroke="#999999" points="337.5,-26 289.25,-26 289.25,-6 337.5,-6 337.5,-26"/>
<text text-anchor="middle" x="313.38" y="-12.5" font-family="Helvetica,sans-Serif" font-size="10.00">string.h</text>
</a>
</g>
</g>
<!-- Node1&#45;&gt;Node5 -->
<g id="edge4_Node000001_Node000005" class="edge">
<title>Node1&#45;&gt;Node5</title>
<g id="a_edge4_Node000001_Node000005"><a xlink:title=" ">
<path fill="none" stroke="#63b8ff" d="M244.51,-67.59C259.5,-56.59 277.46,-43.39 291.28,-33.23"/>
<polygon fill="#63b8ff" stroke="#63b8ff" points="293.31,-36.09 299.3,-27.34 289.16,-30.44 293.31,-36.09"/>
</a>
</g>
</g>
</g>
</svg>
</svg>

<style type='text/css'>
<![CDATA[
[data-mouse-over-selected='false'] { opacity: 0.7; }
[data-mouse-over-selected='true']  { opacity: 1.0; }
]]>
</style>
<script type="application/ecmascript"><![CDATA[
document.addEventListener('DOMContentLoaded', (event) => {
  highlightEdges();
  highlightAdjacentNodes();
});
]]></script>
</svg>
