<?xml version="1.0" encoding="UTF-8" standalone="no"?>
<!DOCTYPE svg PUBLIC "-//W3C//DTD SVG 1.1//EN"
 "http://www.w3.org/Graphics/SVG/1.1/DTD/svg11.dtd">
<!-- Generated by graphviz version 9.0.0 (20230911.1827)
 -->
<!-- Title: src/rental_management_app/src/rental_management_app.cpp Pages: 1 -->
<svg width="254pt" height="120pt"
 viewBox="0.00 0.00 254.25 120.00" xmlns="http://www.w3.org/2000/svg" xmlns:xlink="http://www.w3.org/1999/xlink">
<g id="graph0" class="graph" transform="scale(1 1) rotate(0) translate(4 116)">
<title>src/rental_management_app/src/rental_management_app.cpp</title>
<!-- Node1 -->
<g id="Node000001" class="node">
<title>Node1</title>
<g id="a_Node000001"><a xlink:title="A simple program to demonstrate the usage of the rental_management_lib model class.">
<polygon fill="#999999" stroke="#666666" points="163.75,-112 21.75,-112 21.75,-68 163.75,-68 163.75,-112"/>
<text text-anchor="start" x="29.75" y="-98.5" font-family="Helvetica,sans-Serif" font-size="10.00">src/rental_management</text>
<text text-anchor="start" x="29.75" y="-86.5" font-family="Helvetica,sans-Serif" font-size="10.00">_app/src/rental_management</text>
<text text-anchor="middle" x="92.75" y="-74.5" font-family="Helvetica,sans-Serif" font-size="10.00">_app.cpp</text>
</a>
</g>
</g>
<!-- Node2 -->
<g id="Node000002" class="node">
<title>Node2</title>
<g id="a_Node000002"><a xlink:title=" ">
<polygon fill="#e0e0e0" stroke="#999999" points="53.5,-26 0,-26 0,-6 53.5,-6 53.5,-26"/>
<text text-anchor="middle" x="26.75" y="-12.5" font-family="Helvetica,sans-Serif" font-size="10.00">iostream</text>
</a>
</g>
</g>
<!-- Node1&#45;&gt;Node2 -->
<g id="edge5_Node000001_Node000002" class="edge">
<title>Node1&#45;&gt;Node2</title>
<g id="a_edge5_Node000001_Node000002"><a xlink:title=" ">
<path fill="none" stroke="#63b8ff" d="M73.3,-67.79C63.64,-57.24 52.1,-44.65 42.92,-34.64"/>
<polygon fill="#63b8ff" stroke="#63b8ff" points="45.65,-32.43 36.31,-27.43 40.49,-37.16 45.65,-32.43"/>
</a>
</g>
</g>
<!-- Node3 -->
<g id="Node000003" class="node">
<title>Node3</title>
<g id="a_Node000003"><a xlink:href="$rental__management__lib_8h.html" xlink:title="Provides functions for rental_management_app.">
<polygon fill="white" stroke="#666666" points="246.25,-32 71.25,-32 71.25,0 246.25,0 246.25,-32"/>
<text text-anchor="start" x="79.25" y="-18.5" font-family="Helvetica,sans-Serif" font-size="10.00">../../rental_management</text>
<text text-anchor="middle" x="158.75" y="-6.5" font-family="Helvetica,sans-Serif" font-size="10.00">_lib/header/rental_management_lib.h</text>
</a>
</g>
</g>
<!-- Node1&#45;&gt;Node3 -->
<g id="edge6_Node000001_Node000003" class="edge">
<title>Node1&#45;&gt;Node3</title>
<g id="a_edge6_Node000001_Node000003"><a xlink:title=" ">
<path fill="none" stroke="#63b8ff" d="M112.2,-67.79C120.07,-59.2 129.18,-49.26 137.25,-40.45"/>
<polygon fill="#63b8ff" stroke="#63b8ff" points="139.68,-42.98 143.86,-33.24 134.52,-38.25 139.68,-42.98"/>
</a>
</g>
</g>
</g>
</svg>
