<?xml version="1.0" encoding="UTF-8" standalone="no"?>
<!DOCTYPE svg PUBLIC "-//W3C//DTD SVG 1.1//EN"
 "http://www.w3.org/Graphics/SVG/1.1/DTD/svg11.dtd">
<!-- Generated by graphviz version 9.0.0 (20230911.1827)
 -->
<!-- Title: src/rental_management_lib/header/rental_management_lib.h Pages: 1 -->
<svg width="304pt" height="120pt"
 viewBox="0.00 0.00 304.00 120.00" xmlns="http://www.w3.org/2000/svg" xmlns:xlink="http://www.w3.org/1999/xlink">
<g id="graph0" class="graph" transform="scale(1 1) rotate(0) translate(4 116)">
<title>src/rental_management_lib/header/rental_management_lib.h</title>
<!-- Node1 -->
<g id="Node000001" class="node">
<title>Node1</title>
<g id="a_Node000001"><a xlink:title="Provides functions for rental_management_app.">
<polygon fill="#999999" stroke="#666666" points="236.5,-112 61.5,-112 61.5,-80 236.5,-80 236.5,-112"/>
<text text-anchor="start" x="69.5" y="-98.5" font-family="Helvetica,sans-Serif" font-size="10.00">src/rental_management</text>
<text text-anchor="middle" x="149" y="-86.5" font-family="Helvetica,sans-Serif" font-size="10.00">_lib/header/rental_management_lib.h</text>
</a>
</g>
</g>
<!-- Node2 -->
<g id="Node000002" class="node">
<title>Node2</title>
<g id="a_Node000002"><a xlink:href="$rental__management__app_8cpp.html" xlink:title="A simple program to demonstrate the usage of the rental_management_lib model class.">
<polygon fill="white" stroke="#666666" points="142,-44 0,-44 0,0 142,0 142,-44"/>
<text text-anchor="start" x="8" y="-30.5" font-family="Helvetica,sans-Serif" font-size="10.00">src/rental_management</text>
<text text-anchor="start" x="8" y="-18.5" font-family="Helvetica,sans-Serif" font-size="10.00">_app/src/rental_management</text>
<text text-anchor="middle" x="71" y="-6.5" font-family="Helvetica,sans-Serif" font-size="10.00">_app.cpp</text>
</a>
</g>
</g>
<!-- Node1&#45;&gt;Node2 -->
<g id="edge5_Node000001_Node000002" class="edge">
<title>Node1&#45;&gt;Node2</title>
<g id="a_edge5_Node000001_Node000002"><a xlink:title=" ">
<path fill="none" stroke="#63b8ff" d="M124.06,-71.98C114.43,-63.09 103.47,-52.97 94.03,-44.26"/>
<polygon fill="#63b8ff" stroke="#63b8ff" points="121.62,-74.49 131.35,-78.7 126.37,-69.35 121.62,-74.49"/>
</a>
</g>
</g>
<!-- Node3 -->
<g id="Node000003" class="node">
<title>Node3</title>
<g id="a_Node000003"><a xlink:href="$rental__management__lib_8cpp.html" xlink:title=" ">
<polygon fill="white" stroke="#666666" points="296,-44 160,-44 160,0 296,0 296,-44"/>
<text text-anchor="start" x="168" y="-30.5" font-family="Helvetica,sans-Serif" font-size="10.00">src/rental_management</text>
<text text-anchor="start" x="168" y="-18.5" font-family="Helvetica,sans-Serif" font-size="10.00">_lib/src/rental_management</text>
<text text-anchor="middle" x="228" y="-6.5" font-family="Helvetica,sans-Serif" font-size="10.00">_lib.cpp</text>
</a>
</g>
</g>
<!-- Node1&#45;&gt;Node3 -->
<g id="edge6_Node000001_Node000003" class="edge">
<title>Node1&#45;&gt;Node3</title>
<g id="a_edge6_Node000001_Node000003"><a xlink:title=" ">
<path fill="none" stroke="#63b8ff" d="M174.26,-71.98C184.01,-63.09 195.11,-52.97 204.68,-44.26"/>
<polygon fill="#63b8ff" stroke="#63b8ff" points="171.91,-69.39 166.87,-78.71 176.62,-74.56 171.91,-69.39"/>
</a>
</g>
</g>
</g>
</svg>
